<svg xmlns="http://www.w3.org/2000/svg" viewBox="0 0 24 24" width="24" height="24">
  <path fill="currentColor" d="M12 2a10 10 0 100 20 10 10 0 000-20zm1 17v-2h-2v2h2zm1.31-7.41l.69.72-1.06 1.06-.72-.69a3.5 3.5 0 01-4.12-.75l-.62-.62-.72.72-.66-.67 1.06-1.06-.72-.72 1.06-1.06-.69-.72.72-.72a3.5 3.5 0 01.75-4.12l.62-.62.72.72.67-.66-1.06-1.06.72-.72.72.69c.99.99.75 2.6-.69 4.13l.69.72-.72.72a3.5 3.5 0 01-4.13.69l-.72.69 1.06 1.06.72-.72a3.5 3.5 0 014.13-.69l.69.72-.72.72 1.06 1.06-.72.69c-.59.58-1.33.9-2.11.9s-1.52-.32-2.11-.9l-.69-.72 1.06-1.06.72.72c.99.99.75 2.6-.69 4.13l.72.72 1.06-1.06-.72-.72c-.58-.58-.9-1.33-.9-2.11s.32-1.52.9-2.11l.72-.72-.72-.72 1.06-1.06z"/>
</svg>
